<svg width="138" height="138" viewBox="0 0 138 138" fill="none" xmlns="http://www.w3.org/2000/svg">
<g filter="url(#filter0_d_1129_113)">
<path d="M62.521 0.13572C62.0219 0.256183 59.5699 0.686409 57.0729 1.09112C10.1741 8.69809 -12.0083 65.9044 17.0263 104.367C26.0681 116.344 46.8323 129.906 47.8607 124.506C47.9895 123.832 46.7534 122.978 43.6854 121.624C31.0991 116.065 19.7097 105.112 13.4955 92.5938C-9.07443 47.1276 29.5402 -4.32319 79.965 4.02852C87.5399 5.28359 88.8555 2.66782 81.4319 1.11129C78.053 0.402757 64.344 -0.303999 62.521 0.136315V0.13572ZM62.8236 13.5427C53.9562 14.8494 42.5455 19.3896 42.5455 21.6114C42.5455 23.3352 43.8261 23.2017 48.5063 20.9901C74.1424 8.8779 105.354 22.1306 114.64 49.0716C130.075 93.8524 79.1194 131.76 40.427 104.279C18.9264 89.009 13.9684 58.679 29.4031 36.8396C33.4989 31.0443 31.3436 28.5941 27.1612 34.2915C1.39221 69.3966 28.2964 118.982 71.7711 116.507C115.658 114.008 136.641 61.4206 106.441 29.6195C95.3694 17.9613 77.5089 11.378 62.8242 13.5415L62.8236 13.5427ZM115.588 21.4488C114.688 22.349 115.376 23.9601 118.257 27.704C139.62 55.4579 132.626 96.9429 103.294 116.46C90.0768 125.255 78.472 127.692 56.7708 126.233C54.7271 126.096 54.3491 126.252 54.3491 127.237C54.3491 131.711 80.324 130.498 93.2029 125.422C130.968 110.539 145.858 62.4946 123.094 28.9739C118.774 22.6137 116.602 20.4352 115.588 21.4494L115.588 21.4488ZM51.2645 44.1107C50.191 45.2963 50.099 46.6867 49.9347 64.2031C49.6647 92.9997 46.7985 92.1292 81.569 73.8111C98.5145 64.8831 98.6095 65.1632 74.3056 52.4143C55.3039 42.4467 53.3949 41.7584 51.2645 44.1107ZM72.2637 55.0052C90.726 64.6481 90.8221 64.7081 89.5308 65.7798C88.0829 66.982 55.1615 84 54.285 84C53.5812 84 53.4412 80.8353 53.4412 64.9324C53.4412 51.5574 53.6388 45.8642 54.1022 45.8642C54.4654 45.8642 62.6385 49.9778 72.2643 55.0052H72.2637Z" fill="white"/>
<path d="M62.021 0.74787C61.0138 0.939301 59.087 1.2712 57.1529 1.58467L62.021 0.74787ZM62.021 0.74787V0.771461L62.6384 0.622338C62.8116 0.580504 63.1784 0.543917 63.7376 0.522358C64.2824 0.501358 64.9718 0.495571 65.7649 0.503237C67.3502 0.518559 69.333 0.587446 71.3672 0.692322C75.4529 0.902961 79.6847 1.2558 81.3293 1.60065C83.1638 1.98529 84.4181 2.42796 85.1574 2.83762C85.5317 3.04497 85.7341 3.22228 85.8245 3.34532C85.848 3.37742 85.8601 3.39931 85.8661 3.413C85.8567 3.42383 85.8395 3.44079 85.8099 3.46247C85.7544 3.50307 85.6674 3.55116 85.5389 3.59961C85.2804 3.69711 84.9008 3.77867 84.3906 3.82294C83.3732 3.91121 81.9151 3.84481 80.0467 3.53524L79.965 4.02852L80.0467 3.53524C29.2294 -4.88148 -9.70797 46.9758 13.0476 92.8161C19.3129 105.438 30.7884 116.474 43.4834 122.081L43.6854 121.624L43.4835 122.081C45.0134 122.757 46.0526 123.293 46.6877 123.731C47.0067 123.952 47.1942 124.127 47.2928 124.26C47.3402 124.324 47.3587 124.367 47.3656 124.39C47.3689 124.4 47.3696 124.407 47.3697 124.409C47.3698 124.411 47.3697 124.412 47.3696 124.413L47.3695 124.413C47.3223 124.661 47.2262 124.823 47.1053 124.934C46.981 125.049 46.7961 125.142 46.5232 125.191C45.9596 125.292 45.1226 125.187 44.0299 124.845C41.8625 124.166 38.9332 122.632 35.722 120.534C29.3051 116.343 21.9019 109.995 17.4254 104.065C-11.3915 65.8915 10.6408 9.12898 57.1528 1.58468L62.021 0.74787ZM85.8709 3.43157C85.8703 3.43136 85.8692 3.42791 85.8696 3.42202C85.8718 3.42884 85.8716 3.43178 85.8709 3.43157ZM62.8965 14.0374L63.1541 13.9994L63.1542 13.9993C77.6143 11.9756 95.1727 18.4802 106.078 29.9638C135.982 61.4533 115.208 113.533 71.7427 116.007C28.6903 118.458 2.0454 69.3518 27.5643 34.5873C28.5935 33.1853 29.4715 32.3227 30.128 31.8879C30.4586 31.669 30.6993 31.5812 30.8513 31.5619C30.9794 31.5457 31.0054 31.5788 31.0105 31.5853C31.0107 31.5856 31.0109 31.5858 31.0111 31.586C31.0352 31.6134 31.0966 31.718 31.0964 31.9841C31.0963 32.2416 31.0375 32.5944 30.8931 33.0417C30.6048 33.9344 30.0002 35.1284 28.9948 36.551C13.4048 58.6102 18.4068 89.2532 40.1375 104.687C79.2209 132.445 130.709 94.1553 115.113 48.9087C105.73 21.6888 74.2006 8.29742 48.2927 20.538L48.2927 20.538C47.1269 21.0889 46.1828 21.5056 45.4224 21.7954C44.6553 22.0877 44.1054 22.239 43.719 22.2792C43.3275 22.32 43.2103 22.2375 43.1742 22.201C43.1239 22.1501 43.0455 22.0057 43.0455 21.6114C43.0455 21.5362 43.1053 21.3445 43.4119 21.0286C43.7019 20.7298 44.1449 20.3896 44.7328 20.0206C45.9051 19.2847 47.5777 18.4809 49.5441 17.6985C53.4748 16.1345 58.5067 14.6843 62.8965 14.0374ZM115.72 22.3048C115.73 22.095 115.802 21.9417 115.942 21.8023C116.001 21.7434 116.051 21.7224 116.099 21.715C116.155 21.7065 116.25 21.7105 116.4 21.7688C116.713 21.8909 117.155 22.2056 117.747 22.7993C118.921 23.9757 120.521 26.0751 122.68 29.2548C145.263 62.5095 130.487 110.19 93.0195 124.957L93.2029 125.422L93.0195 124.957C86.6506 127.467 76.9975 129.034 68.9231 129.411C64.8873 129.6 61.2774 129.489 58.6905 129.062C57.3921 128.847 56.3882 128.558 55.7223 128.209C55.0416 127.853 54.8491 127.513 54.8491 127.237C54.8491 127.01 54.8732 126.902 54.8967 126.849C54.9076 126.825 54.9179 126.804 54.985 126.776C55.0764 126.738 55.2435 126.703 55.5468 126.693C55.8436 126.683 56.2299 126.698 56.7372 126.732C67.6087 127.463 75.9867 127.221 83.3166 125.681C90.6554 124.14 96.9192 121.302 103.571 116.877C133.141 97.2004 140.195 55.385 118.654 27.399C117.212 25.5265 116.357 24.2324 115.965 23.3138C115.77 22.8572 115.708 22.5346 115.72 22.3048ZM72.4957 54.5623L72.4957 54.562C67.6813 52.0474 63.2292 49.761 59.9346 48.1028C58.2876 47.2739 56.9278 46.6009 55.9559 46.1347C55.4705 45.9019 55.0783 45.7189 54.794 45.5934C54.6526 45.5309 54.5325 45.4803 54.4386 45.4445C54.3921 45.4268 54.3457 45.4102 54.3029 45.3973L54.3009 45.3967C54.2741 45.3886 54.193 45.3642 54.1022 45.3642C53.793 45.3642 53.6354 45.5978 53.5894 45.6747C53.5277 45.7777 53.4876 45.8968 53.4585 46.003C53.3982 46.2233 53.3491 46.5291 53.3066 46.9068C53.2206 47.6697 53.1519 48.8153 53.0982 50.3654C52.9905 53.4699 52.9412 58.2444 52.9412 64.9324C52.9412 72.8804 52.9761 77.6595 53.0996 80.4519C53.1612 81.8419 53.2456 82.7698 53.3665 83.3577C53.4259 83.6465 53.5027 83.8999 53.6189 84.0919C53.7444 84.2991 53.9619 84.5 54.285 84.5C54.3732 84.5 54.4522 84.4781 54.4847 84.469C54.531 84.4559 54.5809 84.439 54.631 84.4206C54.732 84.3837 54.8592 84.3316 55.0074 84.2677C55.3051 84.1392 55.7107 83.9529 56.2058 83.7182C57.1974 83.2483 58.5646 82.577 60.1817 81.7695C63.4168 80.1538 67.6616 77.9879 71.9232 75.7849C76.1849 73.5819 80.4653 71.3408 83.7716 69.5749C85.4245 68.6921 86.8358 67.9271 87.8802 67.3445C88.4021 67.0534 88.8349 66.8064 89.1615 66.6124C89.4736 66.4268 89.7236 66.2696 89.8502 66.1645C89.8502 66.1645 89.8502 66.1645 89.8502 66.1645L89.8638 66.1532C90.0087 66.033 90.2005 65.8739 90.3284 65.6886C90.4009 65.5835 90.4666 65.4523 90.4924 65.2945C90.5188 65.1329 90.4983 64.9738 90.4416 64.8236C90.3368 64.546 90.108 64.2986 89.8252 64.0601C89.5311 63.812 89.1194 63.5257 88.5695 63.1825C86.378 61.815 81.7134 59.3767 72.4957 54.5623ZM50.4347 64.2078C50.5169 55.4419 50.581 50.7333 50.7576 48.0659C50.846 46.7296 50.9609 45.9412 51.1079 45.4237C51.2471 44.9337 51.4133 44.6913 51.6351 44.4463C52.1311 43.8987 52.5513 43.5961 53.1619 43.5091C53.8114 43.4165 54.7472 43.5573 56.2888 44.1129C59.3669 45.2223 64.5568 47.8651 74.0733 52.8571C74.3799 53.0179 74.6825 53.1766 74.9812 53.3333C80.6103 56.2854 84.8478 58.5077 87.8175 60.3081C89.3808 61.2558 90.5734 62.0753 91.4254 62.8113C92.2844 63.5533 92.7509 64.1719 92.9324 64.7063C93.1012 65.2038 93.0399 65.6778 92.7029 66.2125C92.3498 66.7725 91.7005 67.3842 90.7113 68.0865C88.83 69.422 85.8934 70.9685 81.9503 73.0451C81.7482 73.1516 81.5434 73.2594 81.3359 73.3687C78.6433 74.7873 76.1789 76.0998 73.9228 77.3014C68.8839 79.9851 64.8846 82.1151 61.7036 83.6362C59.4023 84.7367 57.5547 85.5058 56.0701 85.9334C54.5757 86.3638 53.5167 86.4274 52.7569 86.1967C52.0352 85.9774 51.507 85.4678 51.1189 84.5357C50.7217 83.5815 50.4904 82.2243 50.373 80.3968C50.2108 77.8733 50.2695 74.5666 50.3438 70.3842C50.3771 68.505 50.4136 66.449 50.4347 64.2078Z" stroke="black"/>
</g>
<defs>
<filter id="filter0_d_1129_113" x="0" y="0" width="137.865" height="138" filterUnits="userSpaceOnUse" color-interpolation-filters="sRGB">
<feFlood flood-opacity="0" result="BackgroundImageFix"/>
<feColorMatrix in="SourceAlpha" type="matrix" values="0 0 0 0 0 0 0 0 0 0 0 0 0 0 0 0 0 0 127 0" result="hardAlpha"/>
<feOffset dy="4"/>
<feGaussianBlur stdDeviation="2"/>
<feComposite in2="hardAlpha" operator="out"/>
<feColorMatrix type="matrix" values="0 0 0 0 0 0 0 0 0 0 0 0 0 0 0 0 0 0 0.25 0"/>
<feBlend mode="normal" in2="BackgroundImageFix" result="effect1_dropShadow_1129_113"/>
<feBlend mode="normal" in="SourceGraphic" in2="effect1_dropShadow_1129_113" result="shape"/>
</filter>
</defs>
</svg>
